# xmcd
#
# Track frame offsets: 
#        180
#        9910
#        26212
#        38335
#        51172
#        67215
#        79529
#        97022
#        108727
#        122828
#        135037
#        149174
#
# Disc length: 2155 seconds
#
# Revision: 0
# Processed by: cddbd v1.5.1PL0 Copyright (c) Steve Scherf et al.
# Submitted via: ExactAudioCopy v0.95b2
#
DISCID=a208690c
DTITLE=Merle Haggard - My Best
DYEAR=1997
DGENRE=Country
TTITLE0=Mama Tried
TTITLE1=Hungry Eyes
TTITLE2=Everybody's Had the Blues
TTITLE3=The Fightin' Side of Me
TTITLE4=It's All in the Movies
TTITLE5=The Roots of My Raising
TTITLE6=I Think I'll Just Stay Here and Drink
TTITLE7=Carolyn
TTITLE8=Always Wanting You
TTITLE9=Okie From Muskogee
TTITLE10=Branded Man
TTITLE11=If We Make It Through December
EXTD=
EXTT0=
EXTT1=
EXTT2=
EXTT3=
EXTT4=
EXTT5=
EXTT6=
EXTT7=
EXTT8=
EXTT9=
EXTT10=
EXTT11=
PLAYORDER=
